<svg width="31" height="31" viewBox="0 0 31 31" fill="none" xmlns="http://www.w3.org/2000/svg">
<circle cx="15.1382" cy="15.5" r="15" fill="#7BC1B7" fill-opacity="0.3"/>
<path d="M13.1624 14.5116C13.8647 15.7466 14.8916 16.7735 16.1266 17.4758L16.79 16.5471C17.0106 16.2384 17.4269 16.143 17.7599 16.3249C18.815 16.9012 19.981 17.2515 21.1974 17.3478C21.5874 17.3787 21.8882 17.7042 21.8882 18.0954V21.4426C21.8882 21.8271 21.5973 22.1493 21.2148 22.1886C20.8174 22.2295 20.4165 22.25 20.0132 22.25C13.5929 22.25 8.38818 17.0453 8.38818 10.625C8.38818 10.2217 8.40875 9.82078 8.4496 9.42332C8.48891 9.04081 8.81114 8.75 9.19567 8.75H12.5427C12.934 8.75 13.2595 9.05078 13.2904 9.44082C13.3867 10.6572 13.737 11.8232 14.3133 12.8783C14.4952 13.2113 14.3998 13.6277 14.0911 13.8482L13.1624 14.5116ZM11.2714 14.0189L12.6963 13.0011C12.2923 12.1289 12.0154 11.2039 11.8736 10.25H9.89499C9.89046 10.3747 9.88818 10.4998 9.88818 10.625C9.88818 16.2169 14.4213 20.75 20.0132 20.75C20.1384 20.75 20.2635 20.7478 20.3882 20.7432V18.7645C19.4343 18.6228 18.5094 18.3459 17.6371 17.9419L16.6193 19.3668C16.2075 19.2069 15.8099 19.0186 15.4287 18.8046L15.3852 18.7797C13.9155 17.944 12.6942 16.7227 11.8584 15.253L11.8336 15.2095C11.6196 14.8283 11.4313 14.4306 11.2714 14.0189Z" fill="black"/>
</svg>
