<svg width="31" height="31" viewBox="0 0 31 31" fill="none" xmlns="http://www.w3.org/2000/svg">
<path d="M13.6382 8.75H16.6382C19.9519 8.75 22.6382 11.4363 22.6382 14.75C22.6382 18.0637 19.9519 20.75 16.6382 20.75V23.375C12.8882 21.875 7.63818 19.625 7.63818 14.75C7.63818 11.4363 10.3245 8.75 13.6382 8.75ZM15.1382 19.25H16.6382C19.1235 19.25 21.1382 17.2353 21.1382 14.75C21.1382 12.2647 19.1235 10.25 16.6382 10.25H13.6382C11.1529 10.25 9.13818 12.2647 9.13818 14.75C9.13818 17.4575 10.9847 19.2242 15.1382 21.1098V19.25Z" fill="black"/>
<circle cx="15.1382" cy="15.5" r="15" fill="#7BC1B7" fill-opacity="0.3"/>
</svg>
