<svg width="24" height="25" viewBox="0 0 24 25" fill="none" xmlns="http://www.w3.org/2000/svg">
<path d="M21.5145 17.6222H23.8003V19.9079H0.943115L0.943115 17.6222H3.22883L3.22883 9.62223C3.22883 7.19739 4.19209 4.87187 5.90671 3.15725C7.62133 1.44263 9.94685 0.47937 12.3717 0.47937C14.7965 0.47937 17.122 1.44263 18.8367 3.15725C20.5513 4.87187 21.5145 7.19739 21.5145 9.62223V17.6222ZM19.2288 17.6222V9.62223C19.2288 7.8036 18.5064 6.05946 17.2204 4.7735C15.9345 3.48753 14.1903 2.76508 12.3717 2.76508C10.5531 2.76508 8.80892 3.48753 7.52295 4.7735C6.23699 6.05946 5.51454 7.8036 5.51454 9.62223V17.6222H19.2288ZM8.94311 22.1937H15.8003V24.4794H8.94311L8.94311 22.1937Z" fill="black"/>
</svg>
