<svg width="31" height="31" viewBox="0 0 31 31" fill="none" xmlns="http://www.w3.org/2000/svg">
<circle cx="15.1382" cy="15.5" r="15" fill="#7BC1B7" fill-opacity="0.3"/>
<g clip-path="url(#clip0_109_248)">
<path d="M18.8882 13.4L22.7982 10.663C22.9678 10.5443 23.2017 10.5855 23.3204 10.7552C23.3645 10.8182 23.3882 10.8933 23.3882 10.9702V20.0298C23.3882 20.2368 23.2203 20.4048 23.0132 20.4048C22.9362 20.4048 22.8612 20.3811 22.7982 20.337L18.8882 17.6V20.75C18.8882 21.1642 18.5524 21.5 18.1382 21.5H7.63818C7.22397 21.5 6.88818 21.1642 6.88818 20.75V10.25C6.88818 9.83579 7.22397 9.5 7.63818 9.5H18.1382C18.5524 9.5 18.8882 9.83579 18.8882 10.25V13.4ZM18.8882 15.769L21.8882 17.869V13.131L18.8882 15.231V15.769ZM8.38818 11V20H17.3882V11H8.38818ZM9.88818 12.5H11.3882V14H9.88818V12.5Z" fill="black"/>
</g>
<defs>
<clipPath id="clip0_109_248">
<rect width="18" height="18" fill="white" transform="translate(6.13818 6.5)"/>
</clipPath>
</defs>
</svg>
